<svg xmlns="http://www.w3.org/2000/svg" viewBox="0 0 30 26" width="30" height="26">
	<style>
		tspan { white-space:pre }
		.shp0 { fill: #ffffff } 
	</style>
	<g id="Services">
		<g id="Fast and reliable">
			<path id="Dashboard" class="shp0" d="M18.7 11.65C18.7 11.65 17.72 17.36 16.68 18.59C15.63 19.83 13.78 19.98 12.55 18.93C11.32 17.87 11.18 16.01 12.22 14.78C13.27 13.54 18.7 11.65 18.7 11.65ZM24.9 24.16L4.8 24.16C4.49 24.16 4.2 24.02 4.01 23.77C2.31 21.55 1.34 18.56 1.34 15.59C1.34 8.04 7.4 1.9 14.85 1.9C22.31 1.9 28.37 8.03 28.37 15.56C28.37 18.56 27.39 21.55 25.69 23.77C25.5 24.02 25.21 24.16 24.9 24.16ZM5.31 22.15L24.39 22.15C25.65 20.32 26.37 17.95 26.37 15.56C26.37 9.14 21.2 3.91 14.85 3.91C8.5 3.91 3.34 9.15 3.34 15.59C3.34 17.96 4.05 20.32 5.31 22.15ZM6.92 15.8C6.36 15.8 5.91 15.35 5.91 14.79C5.91 9.78 9.92 5.71 14.85 5.71C19.78 5.71 23.79 9.77 23.79 14.76C23.79 15.32 23.34 15.77 22.79 15.77C22.24 15.77 21.79 15.32 21.79 14.76C21.79 10.88 18.68 7.72 14.85 7.72C11.03 7.72 7.92 10.9 7.92 14.79C7.92 15.35 7.47 15.8 6.92 15.8Z" />
		</g>
	</g>
</svg>