<svg xmlns="http://www.w3.org/2000/svg" viewBox="0 0 28 28" width="28" height="28">
	<style>
		tspan { white-space:pre }
		.shp0 { fill: #ffffff } 
	</style>
	<g id="Services">
		<g id="Easy Customize">
			<path id="Settings" class="shp0" d="M14.59 20.3C11.28 20.3 8.58 17.59 8.58 14.27C8.58 10.95 11.28 8.25 14.59 8.25C17.91 8.25 20.6 10.95 20.6 14.27C20.6 17.59 17.91 20.3 14.59 20.3ZM14.59 10.26C12.38 10.26 10.58 12.06 10.58 14.27C10.58 16.49 12.38 18.29 14.59 18.29C16.8 18.29 18.6 16.49 18.6 14.27C18.6 12.06 16.8 10.26 14.59 10.26ZM11.92 26.29C11.85 26.29 11.77 26.28 11.7 26.26C9.88 25.85 8.14 25.02 6.67 23.85C6.47 23.68 6.33 23.44 6.3 23.17C6.27 22.91 6.35 22.65 6.51 22.44L6.91 21.94C6.21 21.28 5.6 20.51 5.1 19.68L4.53 19.96C4.04 20.2 3.44 19.99 3.19 19.49C2.37 17.79 1.95 15.96 1.94 14.05C1.94 13.79 2.05 13.53 2.24 13.34C2.42 13.15 2.68 13.05 2.94 13.05L3.57 13.05C3.65 12.08 3.87 11.13 4.21 10.22L3.64 9.95C3.4 9.83 3.22 9.63 3.13 9.37C3.04 9.12 3.06 8.85 3.17 8.61C3.98 6.92 5.18 5.41 6.63 4.24C7.07 3.9 7.7 3.96 8.04 4.4L8.44 4.89C9.24 4.35 10.12 3.93 11.04 3.62L10.9 3.01C10.84 2.75 10.88 2.47 11.02 2.25C11.17 2.02 11.39 1.86 11.65 1.8C13.46 1.39 15.4 1.38 17.22 1.79C17.76 1.91 18.1 2.44 17.97 2.98L17.84 3.6C18.76 3.9 19.64 4.32 20.45 4.85L20.84 4.36C21 4.15 21.25 4.01 21.51 3.98C21.77 3.95 22.04 4.03 22.25 4.19C23.71 5.36 24.92 6.86 25.74 8.54C25.85 8.78 25.87 9.05 25.78 9.31C25.7 9.56 25.51 9.76 25.28 9.88L24.71 10.16C25.05 11.08 25.28 12.02 25.37 12.99L25.98 12.98C26.23 12.97 26.51 13.09 26.7 13.27C26.89 13.46 27 13.72 27 13.99C27 15.93 26.58 17.77 25.76 19.47C25.64 19.71 25.44 19.9 25.19 19.98C24.93 20.07 24.66 20.06 24.42 19.94L23.85 19.66C23.35 20.49 22.74 21.26 22.05 21.93L22.44 22.42C22.79 22.85 22.72 23.49 22.29 23.83C20.82 25 19.09 25.84 17.27 26.26C16.72 26.39 16.19 26.04 16.07 25.5L15.93 24.89C14.95 25.03 14.01 25.03 13.04 24.89L12.9 25.51C12.84 25.77 12.68 25.99 12.46 26.13C12.29 26.24 12.11 26.29 11.92 26.29ZM8.74 22.86C9.49 23.36 10.32 23.75 11.17 24.04L11.29 23.52C11.35 23.26 11.51 23.03 11.73 22.89C11.96 22.75 12.23 22.7 12.49 22.76C13.83 23.06 15.12 23.06 16.47 22.75C16.72 22.69 17 22.74 17.22 22.88C17.45 23.02 17.61 23.25 17.67 23.51L17.79 24.03C18.64 23.75 19.46 23.35 20.22 22.85L19.89 22.43C19.54 22 19.61 21.37 20.05 21.02C21.08 20.19 21.94 19.12 22.52 17.91C22.76 17.41 23.36 17.2 23.86 17.44L24.35 17.68C24.66 16.81 24.87 15.92 24.95 15L24.43 15.01C24.16 14.98 23.9 14.91 23.71 14.72C23.52 14.53 23.41 14.28 23.41 14.01C23.41 12.66 23.1 11.35 22.5 10.12C22.26 9.62 22.47 9.02 22.97 8.77L23.45 8.54C22.98 7.77 22.41 7.06 21.76 6.43L21.42 6.85C21.08 7.28 20.45 7.36 20.02 7.01C18.96 6.17 17.75 5.59 16.43 5.29C15.89 5.17 15.55 4.64 15.67 4.1L15.79 3.57C14.9 3.46 13.98 3.47 13.09 3.58L13.21 4.11C13.27 4.36 13.22 4.64 13.08 4.86C12.94 5.09 12.71 5.25 12.46 5.31C11.15 5.61 9.92 6.21 8.88 7.04C8.45 7.39 7.82 7.32 7.47 6.89L7.14 6.47C6.49 7.1 5.92 7.82 5.46 8.59L5.94 8.83C6.44 9.07 6.65 9.67 6.41 10.17C5.82 11.39 5.53 12.69 5.53 14.03C5.53 14.58 5.08 15.05 4.53 15.05L4 15.05C4.08 15.96 4.29 16.84 4.6 17.69L5.09 17.46C5.33 17.34 5.6 17.33 5.85 17.41C6.1 17.5 6.31 17.68 6.43 17.92C7.01 19.13 7.87 20.21 8.91 21.04C9.12 21.2 9.25 21.44 9.28 21.71C9.31 21.97 9.23 22.24 9.07 22.45L8.74 22.86Z" />
		</g>
	</g>
</svg>