<svg xmlns="http://www.w3.org/2000/svg" viewBox="0 0 26 33" width="26" height="33">
	<style>
		tspan { white-space:pre }
		.shp0 { fill: #1275b9 } 
	</style>
	<g id="Services">
		<g id="Responsive Design">
			<path id="Tablet" class="shp0" d="M19.27 31.98L6.74 31.98C4.1 31.98 1.96 29.75 1.96 27.02L1.96 6.94C1.96 4.21 4.1 1.99 6.74 1.99L19.27 1.99C21.9 1.99 24.04 4.21 24.04 6.94L24.04 27.02C24.04 29.75 21.9 31.98 19.27 31.98ZM6.74 4C5.17 4 3.9 5.32 3.9 6.94L3.9 27.02C3.9 28.64 5.17 29.97 6.74 29.97L19.27 29.97C20.83 29.97 22.1 28.64 22.1 27.02L22.1 6.94C22.1 5.32 20.83 4 19.27 4L6.74 4ZM13 28.82C12.47 28.82 12.03 28.37 12.03 27.81C12.03 27.26 12.47 26.81 13 26.81C13.53 26.81 13.97 27.26 13.97 27.81C13.97 28.37 13.53 28.82 13 28.82ZM13.97 7.43L12.03 7.43C11.5 7.43 11.07 6.98 11.07 6.43C11.07 5.87 11.5 5.42 12.03 5.42L13.97 5.42C14.5 5.42 14.94 5.87 14.94 6.43C14.94 6.98 14.5 7.43 13.97 7.43Z" />
		</g>
	</g>
</svg>